# xmcd
#
# Track frame offsets: 
#        150
#        12125
#        24080
#        38637
#        51670
#        63955
#        76525
#        91375
#        105567
#        115167
#        129415
#        140992
#        157815
#        171080
#        185057
#        196722
#
# Disc length: 2815 seconds
#
# Revision: 0
# Processed by: cddbd v1.5.2PL0 Copyright (c) Steve Scherf et al.
# Submitted via: ExactAudioCopyFreeDBPlugin 1.0
#
DISCID=c40afd10
DTITLE=Dickey Lee - Dickey Lee's Hit Collection
DYEAR=1900
DGENRE=Country
TTITLE0=Neyer Ending Song Of Love
TTITLE1=I've Been Around Enough To Know
TTITLE2=She Thinks I Still Care
TTITLE3=You're The First Time I've Thought About Leaving
TTITLE4=Ashes Of Love
TTITLE5=Let's Fall To Pieces Together
TTITLE6=9,999,999 Tears
TTITLE7=I'll Be Leavin' Alone
TTITLE8=I Saw Linda Yesterday
TTITLE9=Patches
TTITLE10=Dream Lover
TTITLE11=Rocky
TTITLE12=The Door Is Always Open
TTITLE13=Everybody's Reachin' Out For Someone
TTITLE14=Mountain Of Love
TTITLE15=Angels, Roses And Rain
EXTD=
EXTT0=
EXTT1=
EXTT2=
EXTT3=
EXTT4=
EXTT5=
EXTT6=
EXTT7=
EXTT8=
EXTT9=
EXTT10=
EXTT11=
EXTT12=
EXTT13=
EXTT14=
EXTT15=
PLAYORDER=
